<?xml version="1.0" encoding="iso-8859-1"?>
<!-- Uploaded to: SVG Repo, www.svgrepo.com, Generator: SVG Repo Mixer Tools -->
<svg version="1.1" id="Layer_1" xmlns="http://www.w3.org/2000/svg" xmlns:xlink="http://www.w3.org/1999/xlink" 
	 viewBox="0 0 512 512" xml:space="preserve">
<rect x="33.67" y="350.042" style="fill:#FF8C78;" width="111.165" height="153.921"/>
<rect x="33.67" y="367.144" style="fill:#DF7A6E;" width="111.165" height="25.653"/>
<polygon style="fill:#C4DF64;" points="33.67,290.187 33.67,367.147 144.835,367.147 144.835,290.187 89.253,230.329 "/>
<polygon style="fill:#96CA63;" points="33.67,290.187 33.67,367.147 59.324,367.147 59.324,262.56 "/>
<rect x="67.875" y="307.286" style="fill:#E5E5E5;" width="42.756" height="59.858"/>
<rect x="200.418" y="255.979" style="fill:#FF8C78;" width="111.165" height="247.983"/>
<rect x="200.418" y="273.081" style="fill:#DF7A6E;" width="111.165" height="25.653"/>
<g>
	<polygon style="fill:#C4DF64;" points="200.418,196.124 200.418,273.085 311.582,273.085 311.582,196.124 256,136.266 	"/>
	<polygon style="fill:#C4DF64;" points="200.418,196.124 200.418,273.085 311.582,273.085 311.582,196.124 256,136.266 	"/>
</g>
<polygon style="fill:#96CA63;" points="200.418,196.124 200.418,273.085 226.605,273.085 226.605,167.923 "/>
<rect x="234.622" y="213.223" style="fill:#D8ED8C;" width="42.756" height="59.858"/>
<rect x="367.165" y="161.917" style="fill:#FF8C78;" width="111.165" height="342.046"/>
<rect x="367.165" y="179.019" style="fill:#DF7A6E;" width="111.165" height="25.653"/>
<polygon style="fill:#C4DF64;" points="367.165,102.062 367.165,179.022 478.33,179.022 478.33,102.062 422.747,42.204 "/>
<polygon style="fill:#96CA63;" points="367.165,102.062 367.165,179.022 393.086,179.022 393.086,74.148 "/>
<rect x="401.37" y="119.161" style="fill:#E5E5E5;" width="42.756" height="59.858"/>
<path d="M503.983,495.949h-17.637V264.534c0-4.427-3.588-8.017-8.017-8.017s-8.017,3.589-8.017,8.017v231.415h-95.132v-308.91
	h95.132v34.739c0,4.427,3.588,8.017,8.017,8.017s8.017-3.589,8.017-8.017V102.062c0-2.023-0.765-3.972-2.142-5.456l-55.582-59.858
	c-3.124-3.366-8.625-3.366-11.749,0L361.29,96.606c-1.377,1.483-2.142,3.431-2.142,5.456v393.887h-39.549V367.147
	c0-4.427-3.588-8.017-8.017-8.017c-4.428,0-8.017,3.589-8.017,8.017v128.802h-95.132V281.101h95.132v43.29
	c0,4.427,3.588,8.017,8.017,8.017c4.428,0,8.017-3.589,8.017-8.017V196.124c0-2.023-0.765-3.972-2.142-5.456l-55.582-59.858
	c-3.124-3.366-8.625-3.366-11.749,0l-55.582,59.858c-1.377,1.483-2.142,3.431-2.142,5.456v299.825h-39.549V290.187
	c0-2.023-0.765-3.972-2.142-5.456l-55.582-59.858c-3.124-3.366-8.625-3.366-11.749,0l-55.582,59.858
	c-1.377,1.483-2.142,3.431-2.142,5.456v119.716c0,4.427,3.588,8.017,8.017,8.017s8.017-3.589,8.017-8.017v-34.739h95.132v120.785
	H41.687v-43.29c0-4.427-3.588-8.017-8.017-8.017s-8.017,3.589-8.017,8.017v43.29H8.017c-4.428,0-8.017,3.589-8.017,8.017
	c0,4.427,3.588,8.017,8.017,8.017h495.967c4.428,0,8.017-3.589,8.017-8.017C512,499.538,508.412,495.949,503.983,495.949z
	 M409.386,171.005v-43.825h26.722v43.825H409.386z M375.182,105.21l47.566-51.225l47.566,51.225v65.796h-18.171v-51.841
	c0-4.427-3.588-8.017-8.017-8.017H401.37c-4.428,0-8.017,3.589-8.017,8.017v51.841h-18.171V105.21z M242.639,265.068v-43.825h26.722
	v43.825H242.639z M208.434,199.272L256,148.048l47.566,51.225v65.796h-18.171v-51.841c0-4.427-3.588-8.017-8.017-8.017h-42.756
	c-4.428,0-8.017,3.589-8.017,8.017v51.841h-18.171V199.272z M75.891,359.131v-43.825h26.722v43.825H75.891z M118.647,359.131
	v-51.841c0-4.427-3.588-8.017-8.017-8.017H67.875c-4.428,0-8.017,3.589-8.017,8.017v51.841H41.687v-65.796l47.566-51.225
	l47.566,51.225v65.796H118.647z"/>
<path d="M97.804,265.068H80.701c-4.428,0-8.017,3.589-8.017,8.017c0,4.427,3.588,8.017,8.017,8.017h17.102
	c4.428,0,8.017-3.589,8.017-8.017C105.82,268.657,102.232,265.068,97.804,265.068z"/>
<path d="M247.449,187.039h17.102c4.428,0,8.017-3.589,8.017-8.017s-3.588-8.017-8.017-8.017h-17.102
	c-4.428,0-8.017,3.589-8.017,8.017S243.02,187.039,247.449,187.039z"/>
<path d="M414.196,92.976h17.102c4.428,0,8.017-3.589,8.017-8.017c0-4.427-3.588-8.017-8.017-8.017h-17.102
	c-4.428,0-8.017,3.589-8.017,8.017C406.18,89.387,409.768,92.976,414.196,92.976z"/>
<path d="M13.829,287.158l75.423-79.394l75.424,79.393c3.254,3.425,8.927,3.241,11.961-0.376c2.585-3.082,2.431-7.754-0.337-10.667
	l-81.236-85.511c-3.115-3.279-8.509-3.279-11.624,0L2.205,276.114c-3.05,3.21-2.919,8.284,0.29,11.333
	C5.705,290.497,10.778,290.369,13.829,287.158z"/>
<path d="M180.577,193.095l75.424-79.393l75.424,79.393c3.254,3.425,8.927,3.241,11.961-0.376c2.585-3.082,2.431-7.754-0.337-10.666
	l-81.236-85.511c-3.115-3.279-8.509-3.279-11.624,0l-81.236,85.511c-3.05,3.21-2.919,8.284,0.29,11.333
	C172.451,196.434,177.526,196.306,180.577,193.095z"/>
<path d="M347.324,99.032l75.423-79.394l75.424,79.393c3.254,3.425,8.927,3.241,11.961-0.376c2.585-3.082,2.431-7.754-0.337-10.666
	L428.56,2.477c-3.115-3.279-8.509-3.279-11.624,0L335.7,87.989c-3.05,3.21-2.919,8.284,0.29,11.333
	C339.199,102.372,344.272,102.243,347.324,99.032z"/>
</svg>