<?xml version="1.0" encoding="iso-8859-1"?>
<!-- Uploaded to: SVG Repo, www.svgrepo.com, Generator: SVG Repo Mixer Tools -->
<svg version="1.1" id="Layer_1" xmlns="http://www.w3.org/2000/svg" xmlns:xlink="http://www.w3.org/1999/xlink" 
	 viewBox="0 0 512 512" xml:space="preserve">
<g>
	<polyline style="fill:#999999;" points="384.669,111.976 360.656,168.005 384.669,160 392.672,184.013 424.69,119.981 	"/>
	<polyline style="fill:#999999;" points="448.702,111.976 472.714,168.005 448.702,160 440.698,184.013 416.685,135.989 	"/>
</g>
<circle style="fill:#FFFFFF;" cx="416.688" cy="63.953" r="32.016"/>
<path style="fill:#AA603B;" d="M416.685,7.922c-30.943,0-56.029,25.085-56.029,56.029c0,30.943,25.085,56.029,56.029,56.029
	s56.029-25.085,56.029-56.029C472.714,33.007,447.629,7.922,416.685,7.922z M416.685,95.968c-17.682,0-32.016-14.334-32.016-32.016
	s14.334-32.016,32.016-32.016s32.016,14.334,32.016,32.016S434.367,95.968,416.685,95.968z"/>
<polygon style="fill:#F2BF7E;" points="432.847,295.699 432.847,280.062 440.774,256.051 416.724,208.026 392.611,256.051 
	400.515,280.062 400.515,295.699 "/>
<rect x="400.679" y="320.08" style="fill:#AA603B;" width="32.016" height="160.082"/>
<path style="fill:#F2BF7E;" d="M81.374,480.166c0,13.262,10.204,24.013,23.466,24.013s23.466-10.751,23.466-24.013v-56.185h192.945
	V31.935c0-13.262-11.366-24.089-24.628-24.089H56.5c13.262,0,24.874,10.827,24.874,24.089V480.166z"/>
<g>
	<path style="fill:#C5FFCA;" d="M128.537,424.137h240.124v60.157c0,10.982-8.903,19.884-19.884,19.884H96.52l14.276-3.569
		c10.426-2.606,17.742-11.975,17.742-22.723v-53.749H128.537z"/>
	<path style="fill:#C5FFCA;" d="M80.511,224.034H32.487V31.935c0-13.261,10.751-24.013,24.013-24.013l0,0
		c13.262,0,24.013,10.751,24.013,24.013v192.099H80.511z"/>
</g>
<path d="M121.006,416.681v63.485c0,7.678-5.365,14.126-12.538,15.779h-4.149v0.403c-8.673-0.277-15.644-7.429-15.644-16.182V31.935
	c0-5.916-1.626-11.456-4.446-16.206l212.394,0.461c8.832,0,15.242,6.622,15.242,15.745v376.402h15.644V31.935
	c0-17.601-13.567-31.39-30.869-31.39L56.515,0.024l0,0c-17.378,0.189-31.46,14.474-31.46,31.911V232.08h38.589v-15.644H40.699
	v-184.5c0-8.928,7.252-16.191,16.166-16.191S73.03,23.007,73.03,31.935v448.231C73.03,497.72,87.301,512,104.84,512
	c1.74,0,3.449-0.141,5.113-0.411h234.694c17.578,0,31.88-14.096,31.88-31.423v-63.485L121.006,416.681L121.006,416.681z
	 M360.883,480.166c0,8.848-7.132,15.779-16.236,15.779H132.461c2.665-4.654,4.19-10.041,4.19-15.779v-47.841h224.233v47.841H360.883
	z"/>
<rect x="256.586" y="56.861" style="fill:#F2F2F2;" width="15.644" height="15.644"/>
<rect x="112.659" y="56.861" width="87.607" height="15.644"/>
<rect x="112.659" y="88.15" style="fill:#FFFFFF;" width="39.632" height="15.644"/>
<rect x="112.659" y="119.438" width="167.914" height="15.644"/>
<rect x="112.659" y="152.812" width="31.288" height="15.644"/>
<rect x="160.635" y="152.812" style="fill:#F2F2F2;" width="63.62" height="15.644"/>
<rect x="240.941" y="152.812" width="39.632" height="15.644"/>
<rect x="177.322" y="184.101" width="103.252" height="15.644"/>
<rect x="112.659" y="184.101" width="47.976" height="15.644"/>
<rect x="112.659" y="216.432" style="fill:#FFFFFF;" width="167.914" height="15.644"/>
<rect x="249.285" y="248.764" width="31.288" height="15.644"/>
<rect x="192.966" y="248.764" style="fill:#F2F2F2;" width="39.632" height="15.644"/>
<rect x="112.659" y="248.764" width="64.663" height="15.644"/>
<rect x="112.659" y="280.052" width="103.252" height="15.644"/>
<g>
	<rect x="136.647" y="377.046" style="fill:#FFFFFF;" width="63.62" height="15.644"/>
	<rect x="215.911" y="377.046" style="fill:#FFFFFF;" width="64.663" height="15.644"/>
</g>
<rect x="264.929" y="320.727" width="15.644" height="15.644"/>
<path d="M440.616,488.088h-47.862V312.161h47.862V488.088z M408.6,472.244h16.17V328.006H408.6V472.244z"/>
<path d="M440.147,303h-47.976v-21.712l-8.316-25.905l32.793-64.789l32.32,64.891l-8.822,25.875V303H440.147z M407.816,287.356
	h16.687v-8.59l7.553-22.15l-15.519-31.158l-15.824,31.26l7.102,22.121V287.356z"/>
<rect x="392.169" y="495.942" width="49.018" height="15.644"/>
<rect x="408.856" y="248.764" width="15.644" height="15.644"/>
<path d="M416.685,103.89c-22.022,0-39.94-17.917-39.94-39.939s17.918-39.939,39.94-39.939s39.94,17.917,39.94,39.939
	C456.625,85.974,438.707,103.89,416.685,103.89z M416.685,39.857c-13.285,0-24.094,10.808-24.094,24.094
	c0,13.285,10.808,24.094,24.094,24.094c13.285,0,24.094-10.809,24.094-24.094S429.97,39.857,416.685,39.857z"/>
<rect x="408.856" y="56.861" width="15.644" height="15.644"/>
<path d="M457.734,112.94c13.988-11.74,22.902-29.34,22.902-48.989c0-35.262-28.688-63.95-63.951-63.95
	c-35.262,0-63.951,28.688-63.951,63.951c0,19.648,8.914,37.248,22.902,48.989l-29.211,68.16l33.232-11.078l11.547,34.641
	l25.48-50.959l25.48,50.959l11.547-34.641l33.232,11.078L457.734,112.94z M368.579,63.951c0-26.526,21.58-48.106,48.106-48.106
	s48.106,21.581,48.106,48.106c0,26.526-21.58,48.107-48.106,48.107S368.579,90.478,368.579,63.951z M389.68,149.98l-14.792,4.93
	l14.252-33.253c7.001,3.356,14.709,5.458,22.828,6.053l-17.827,35.653L389.68,149.98z M443.691,149.98l-4.461,13.383l-13.688-27.374
	l4.783-9.565c4.862-1.061,9.523-2.666,13.906-4.766l14.252,33.253L443.691,149.98z"/>
</svg>