<?xml version='1.0' encoding='utf-8'?>
<svg xmlns="http://www.w3.org/2000/svg" fill="green" version="1.1" id="Layer_1" viewBox="0 0 74 74">
    <g> <path d="M20.65,57.75H6.6c-0.61,0-1.11-0.5-1.11-1.11V6.49c0-0.61,0.5-1.11,1.11-1.11h36.29c0.61,0,1.11,0.5,1.11,1.11v28.53 c0,0.21,0.17,0.38,0.38,0.38s0.38-0.17,0.38-0.38V6.49c0-1.03-0.84-1.86-1.86-1.86H6.6c-1.03,0-1.86,0.84-1.86,1.86v50.15 c0,1.03,0.84,1.86,1.86,1.86h14.05c0.21,0,0.38-0.17,0.38-0.38S20.86,57.75,20.65,57.75z"/> <rect x="10.24" y="21.57" width="29" height="1.68"/> <rect x="10.24" y="26.47" width="29" height="1.68"/> <rect x="10.24" y="31.38" width="29" height="1.68"/> <polygon points="31.06,36.28 10.24,36.28 10.24,37.96 30.62,37.96 "/> <polygon points="20.01,41.18 10.24,41.18 10.24,42.86 19.21,42.86 "/> <rect x="14.25" y="14.11" width="20.99" height="3.13"/> <path d="M8.97,50.41c0,2.26,1.84,4.1,4.1,4.1c2.26,0,4.1-1.84,4.1-4.1c0-2.26-1.84-4.1-4.1-4.1C10.81,46.31,8.97,48.15,8.97,50.41z M16.6,50.41c0,1.94-1.58,3.52-3.52,3.52c-1.94,0-3.52-1.58-3.52-3.52c0-1.94,1.58-3.52,3.52-3.52 C15.02,46.89,16.6,48.47,16.6,50.41z"/> <path d="M10.94,50.41c0,1.18,0.96,2.14,2.14,2.14c1.18,0,2.14-0.96,2.14-2.14s-0.96-2.14-2.14-2.14 C11.89,48.27,10.94,49.23,10.94,50.41z"/> <path d="M41.64,49.52c-0.28,0-0.51,0.23-0.51,0.51c0,0.28,0.23,0.51,0.51,0.51c0.28,0,0.51-0.23,0.51-0.51 C42.15,49.75,41.92,49.52,41.64,49.52z"/> <path d="M38.22,49.52c-0.28,0-0.51,0.23-0.51,0.51c0,0.28,0.23,0.51,0.51,0.51s0.51-0.23,0.51-0.51 C38.73,49.75,38.5,49.52,38.22,49.52z"/> <path d="M54.39,60.49c0.1,0.12,0.21,0.21,0.34,0.27s0.27,0.09,0.42,0.1c0.15,0.01,0.3,0.01,0.45,0.01l0.3,1.26l-0.03,0.01 c-0.15,0.04-0.31,0.06-0.46,0.07c-0.16,0.01-0.29,0.01-0.41,0c-0.12-0.01-0.22-0.02-0.3-0.04l0.15,0.61 c0.06,0.02,0.13,0.03,0.22,0.04s0.19,0.01,0.29,0c0.11,0,0.22-0.01,0.34-0.03s0.24-0.04,0.35-0.07l0.11,0.44l0.48-0.12l-0.11-0.47 c0.18-0.07,0.33-0.16,0.46-0.26c0.13-0.1,0.24-0.21,0.32-0.34c0.08-0.13,0.13-0.26,0.16-0.41c0.02-0.15,0.01-0.31-0.03-0.47 c-0.05-0.21-0.13-0.37-0.23-0.49c-0.1-0.12-0.22-0.2-0.35-0.26c-0.13-0.06-0.28-0.09-0.43-0.1c-0.15-0.01-0.31-0.01-0.46-0.01 l-0.3-1.24c0.2-0.04,0.39-0.05,0.56-0.05c0.17,0,0.34,0.01,0.51,0.03l-0.15-0.61c-0.15-0.02-0.32-0.03-0.5-0.02 c-0.18,0.01-0.37,0.03-0.57,0.06l-0.11-0.44l-0.48,0.12l0.11,0.46c-0.16,0.06-0.31,0.14-0.43,0.24c-0.13,0.1-0.23,0.21-0.3,0.34 c-0.08,0.13-0.13,0.27-0.15,0.42c-0.02,0.15-0.01,0.32,0.03,0.49C54.22,60.21,54.29,60.38,54.39,60.49z M56.37,60.84 c0.08,0.01,0.16,0.03,0.22,0.06s0.12,0.07,0.16,0.12s0.07,0.12,0.1,0.2c0.02,0.09,0.03,0.18,0.01,0.25 c-0.02,0.08-0.05,0.14-0.09,0.21s-0.1,0.12-0.17,0.16c-0.07,0.05-0.14,0.09-0.22,0.13l-0.27-1.14 C56.2,60.83,56.29,60.83,56.37,60.84z M55.17,59.11l0.27,1.14c-0.21,0-0.37-0.02-0.48-0.09c-0.11-0.06-0.19-0.17-0.23-0.32 C54.66,59.51,54.8,59.26,55.17,59.11z"/> <path d="M66.14,62.76l-2.15-8.89l-18.53,4.47l2.15,8.89L66.14,62.76z M64.44,59.39l-4.23,1.02l-0.14-0.59l4.23-1.02L64.44,59.39z M64.02,57.64l0.14,0.59l-4.23,1.02l-0.14-0.59L64.02,57.64z M54.85,56.62c1.82-0.44,3.72,0.97,4.24,3.13 c0.52,2.17-0.52,4.29-2.34,4.73s-3.71-0.97-4.24-3.14C51.99,59.17,53.04,57.05,54.85,56.62z M47.17,61.71l4.23-1.03l0.14,0.59 l-4.23,1.03L47.17,61.71z M47.45,62.87l4.23-1.02l0.14,0.58l-4.23,1.03L47.45,62.87z"/> <path d="M42.15,64.32h-16.7c-0.73,0-1.33-0.6-1.33-1.33V52.11c0.1,0.02,0.2,0.03,0.31,0.03h11.88v0.62c0,0.08,0.08,0.14,0.18,0.14 h0.79v2.54c0,0.43,0.41,0.78,0.9,0.78h3.49c0.51,0,0.9-0.34,0.9-0.78v-2.54h0.78c0.12,0,0.2-0.06,0.2-0.14v-0.62h4.66 c0-0.14,3.24-1.96,5.84-3.41l-2.87-2.01c-2.1-1.47-3.72-3.45-4.75-5.72h-0.83v-0.87h-0.59v-1.43h0.28c0.3,0,0.53-0.25,0.53-0.53 c0-0.3-0.24-0.53-0.53-0.53H34.56c-0.29,0-0.53,0.24-0.53,0.53c0,0.29,0.25,0.53,0.53,0.53h0.28v1.43h-0.59V41h-9.83 c-1,0-1.82,0.81-1.82,1.82v7.5c0,0.61,0.3,1.14,0.76,1.47v11.2c0,1.15,0.93,2.08,2.08,2.08h16.7c0.21,0,0.38-0.17,0.38-0.38 S42.35,64.32,42.15,64.32z M43.15,49.31v1.44c0,0.24-0.2,0.44-0.44,0.44h-5.55c-0.24,0-0.44-0.2-0.44-0.44v-1.44 c0-0.24,0.2-0.44,0.44-0.44h5.55C42.95,48.87,43.15,49.07,43.15,49.31z M41.83,55.43c-0.01,0.01-0.06,0.05-0.16,0.05h-3.49 c-0.09,0-0.14-0.03-0.15-0.03c0,0,0,0,0,0v-2.54h3.8L41.83,55.43z M36.29,40.12v-1.43h7.29v1.43h-0.59V41h-6.11v-0.87H36.29z"/> <path d="M69.27,35.16v-7.59c0-0.7-0.53-1.26-1.24-1.31c-3.5-0.26-6.58-1.44-9.17-3.5c-0.49-0.39-1.17-0.39-1.66,0 c-2.58,2.06-5.66,3.24-9.17,3.5c-0.71,0.05-1.24,0.61-1.24,1.31v7.59c0,4.07,1.99,7.89,5.33,10.23l4.91,3.43 c0.04,0.03,0.08,0.04,0.12,0.06l-15.67,8.54c-0.36,0.2-0.63,0.52-0.74,0.92c-0.12,0.39-0.07,0.81,0.12,1.18l5.08,9.14 c0.01,0.01,0.02,0.02,0.03,0.03c0.12,0.18,0.28,0.34,0.47,0.46c0.24,0.15,0.52,0.23,0.8,0.23c0.12,0,0.24-0.02,0.36-0.05l19.51-4.7 c0.4-0.1,0.73-0.34,0.95-0.7c0.22-0.35,0.28-0.76,0.18-1.16l-2.38-9.87c-0.2-0.83-1.03-1.34-1.86-1.14l-0.89,0.22 c0-0.01,0-0.01,0-0.02l-1.92-3.52c-0.16-0.29-0.42-0.49-0.71-0.63l3.46-2.42C67.28,43.05,69.27,39.23,69.27,35.16z M41.52,59.15 c-0.1-0.18-0.12-0.4-0.06-0.6s0.19-0.37,0.38-0.47l1.7-0.92c-0.21,0.35-0.27,0.77-0.18,1.17l1.77,7.32L41.52,59.15z M64.18,52.49 c0.06-0.01,0.12-0.02,0.18-0.02c0.36,0,0.69,0.24,0.77,0.61l2.38,9.86c0.05,0.21,0.02,0.42-0.09,0.6 c-0.11,0.18-0.28,0.31-0.49,0.36l-19.5,4.7c-0.43,0.11-0.86-0.16-0.96-0.58l-2.38-9.87c-0.1-0.42,0.16-0.85,0.59-0.95L64.18,52.49z M60.53,48.8l1.83,3.36l-1.3,0.31l-1.43-2.62l-9.77,5.32l-4.83,1.17l14.55-7.9C59.93,48.32,60.34,48.45,60.53,48.8z M58.06,48.38 c-0.21,0.01-0.42-0.04-0.6-0.17l-4.91-3.44c-3.14-2.19-5.01-5.78-5.01-9.61v-7.59c0-0.3,0.23-0.54,0.54-0.56 c3.67-0.28,6.89-1.51,9.59-3.66c0.11-0.09,0.23-0.13,0.36-0.13c0.13,0,0.26,0.04,0.37,0.13c2.7,2.15,5.92,3.38,9.58,3.66 c0.31,0.02,0.54,0.26,0.54,0.56v7.59c0,3.83-1.87,7.42-5.01,9.61L58.06,48.38z"/> <path d="M66.94,28.46c-3.36-0.35-6.35-1.49-8.92-3.42c-2.56,1.93-5.55,3.08-8.92,3.42v6.72c0,3.3,1.62,6.4,4.32,8.28l4.6,3.22 l4.61-3.22c2.69-1.89,4.31-4.98,4.31-8.28V28.46z M62.53,32.81l-4.81,5.68c-0.18,0.21-0.44,0.33-0.7,0.33 c-0.21,0-0.42-0.07-0.61-0.22l-2.77-2.32c-0.39-0.34-0.44-0.92-0.12-1.31c0.34-0.39,0.92-0.45,1.32-0.12l2.06,1.72l4.2-4.97 c0.33-0.39,0.91-0.44,1.31-0.11C62.81,31.83,62.85,32.41,62.53,32.81z"/> </g> </svg>
